# xmcd
#
# Track frame offsets: 
#        150
#        20209
#        39169
#        66395
#        85686
#        109598
#        125243
#        139065
#        157619
#        185278
#
# Disc length: 2782 seconds
#
# Revision: 1
# Processed by: cddbd v1.5.2PL0 Copyright (c) Steve Scherf et al.
# Submitted via: ExactAudioCopyFreeDBPlugin 1.0
#
DISCID=7e0adc0a
DTITLE=Андрей Козловский - Мой Блюз
DYEAR=2003
DGENRE=Blues
TTITLE0=Не горюй
TTITLE1=Монета
TTITLE2=Колыбельная
TTITLE3=Очки-тапочки
TTITLE4=Она была дольше со мной (Чем со всеми)
TTITLE5=Вниз по Золотухе
TTITLE6=Кривой Автомобиль
TTITLE7=Возьми себя в руки
TTITLE8=Полный вперед
TTITLE9=Пурга в пустыне (инстр.)
EXTD=
EXTT0=
EXTT1=
EXTT2=
EXTT3=
EXTT4=
EXTT5=
EXTT6=
EXTT7=
EXTT8=
EXTT9=
PLAYORDER=
